<svg version="1.1" id="Layer_1" xmlns="http://www.w3.org/2000/svg" xmlns:xlink="http://www.w3.org/1999/xlink" x="0px" y="0px"
	 width="100%" viewBox="0 0 401 123" enable-background="new 0 0 401 123" xml:space="preserve">
<path fill="#000000" opacity="1.000000" stroke="none" 
	d="
M268.000000,124.000000 
	C178.666687,124.000000 89.833374,124.000000 1.000048,124.000000 
	C1.000032,83.000031 1.000032,42.000061 1.000016,1.000070 
	C134.666611,1.000046 268.333221,1.000046 401.999878,1.000023 
	C401.999908,41.999928 401.999908,82.999855 401.999939,123.999893 
	C357.500000,124.000000 313.000000,124.000000 268.000000,124.000000 
M237.776382,91.073257 
	C237.776382,91.073257 237.885391,91.431137 237.885391,91.431137 
	C237.885391,91.431137 238.210587,91.171837 238.245529,91.047371 
	C238.245529,91.047371 237.930527,90.915428 237.776382,91.073257 
M302.030548,108.337662 
	C302.553619,108.082741 303.076691,107.827827 303.599762,107.572906 
	C303.506134,107.315636 303.412537,107.058365 303.318939,106.801102 
	C302.448364,107.076424 301.577820,107.351746 300.018494,107.642159 
	C299.339111,107.745544 298.659698,107.848938 297.051453,107.940887 
	C289.421753,108.174171 281.755585,108.607903 274.728790,103.334961 
	C268.639923,99.230286 267.263977,92.185730 264.570923,86.007088 
	C264.705902,85.681862 264.840881,85.356628 265.244293,84.416496 
	C265.458405,83.558388 265.672485,82.700279 265.956116,80.927261 
	C265.945099,69.323235 265.934082,57.719204 265.946930,45.169018 
	C265.650543,40.113636 265.354156,35.058258 265.292542,29.326744 
	C266.208649,27.235332 267.124786,25.143921 268.745422,23.001333 
	C269.683716,22.629213 270.621979,22.257093 271.560272,21.884974 
	C271.503906,21.311201 271.447540,20.737427 271.391144,20.163654 
	C263.642151,20.163654 255.893127,20.163654 247.547867,20.182264 
	C245.343414,23.026672 245.448456,23.344709 249.965775,27.733915 
	C250.057724,28.143141 250.149673,28.552364 250.094482,29.894209 
	C250.065109,44.913895 250.008377,59.933662 250.052841,74.953133 
	C250.056854,76.310005 250.713348,77.664940 251.013733,79.869118 
	C251.395462,82.566727 251.777176,85.264343 252.267868,88.667587 
	C253.842514,91.441277 255.417145,94.214958 257.183289,97.215492 
	C257.183289,97.215492 257.377747,97.439819 257.599976,97.984787 
	C261.631470,101.631317 264.785431,106.561508 271.545258,107.416344 
	C278.738068,110.901009 286.439209,111.299080 294.204651,110.908936 
	C295.861755,110.825684 297.466187,109.694778 299.705292,109.009422 
	C300.299438,108.893158 300.893555,108.776894 302.030548,108.337662 
M166.322723,38.128822 
	C166.287827,37.015476 166.252930,35.902130 166.444290,34.567879 
	C166.444290,34.567879 166.554718,34.271580 167.072281,33.862442 
	C167.027756,32.239357 166.983231,30.616268 166.999207,28.527725 
	C166.999207,28.527725 167.030960,28.059427 167.649872,27.799076 
	C168.742538,26.168287 169.835205,24.537497 171.568039,22.713591 
	C172.212021,22.145723 172.856018,21.577856 173.909424,20.648960 
	C166.706039,20.648960 160.209412,20.648960 153.712799,20.648960 
	C153.695511,20.939953 153.678223,21.230946 153.660934,21.521938 
	C154.982697,22.117680 156.304474,22.713421 157.938431,23.773230 
	C158.305756,24.179157 158.673096,24.585083 159.166855,25.467342 
	C159.364441,25.782639 159.647568,25.914984 160.465988,26.375164 
	C160.729385,27.224253 160.992783,28.073341 161.065781,29.559351 
	C161.517624,30.257132 161.969467,30.954910 162.290894,31.979326 
	C162.290894,31.979326 162.256241,32.329330 162.065399,32.743893 
	C162.080124,33.192707 162.094849,33.641521 162.039886,35.014042 
	C162.023941,40.138065 161.883545,45.265671 162.030945,50.384995 
	C162.151611,54.575909 162.615204,58.756954 163.290466,63.106884 
	C163.290466,63.106884 163.687698,63.146454 163.744308,64.042747 
	C163.704758,67.640305 163.665192,71.237854 163.304276,74.950264 
	C163.409561,75.357132 163.514832,75.764000 163.674194,77.013626 
	C163.234482,79.721420 163.031815,82.495277 162.300018,85.121689 
	C161.174042,89.162819 159.684937,93.102753 157.677292,97.308594 
	C156.717514,98.413712 155.956131,99.851280 154.762100,100.563881 
	C150.572861,103.064018 148.607834,109.506935 141.194595,107.769974 
	C136.479507,107.659714 131.593750,108.308250 127.082153,107.293381 
	C114.776703,104.525299 109.684113,93.212219 109.266853,80.707695 
	C108.767967,65.756638 109.331154,50.772949 109.101700,35.808495 
	C109.027428,30.964750 110.015648,26.788328 113.618149,22.807859 
	C114.019432,22.052599 114.420708,21.297340 114.842896,20.502741 
	C105.444893,20.502741 96.473618,20.502741 86.667183,20.502741 
	C88.942993,22.115482 90.395988,23.145145 92.201057,24.729628 
	C93.355064,26.475348 94.509064,28.221067 95.301941,30.711023 
	C95.297577,46.518929 95.293205,62.326836 95.206154,78.965073 
	C95.614281,81.506554 95.804680,84.106918 96.472977,86.578033 
	C98.200806,92.966881 100.715355,99.320976 106.685287,102.600479 
	C113.440887,106.311592 120.852402,108.828712 128.904526,111.946899 
	C136.676376,112.970604 144.051453,111.139488 150.663788,107.455910 
	C154.833679,105.132950 158.084396,101.159950 161.935226,97.290924 
	C163.495163,92.153755 165.055099,87.016586 166.836288,81.343582 
	C166.645767,80.237587 166.455231,79.131599 166.310379,77.260315 
	C166.336838,76.238632 166.363312,75.216942 166.888229,73.928436 
	C166.722855,72.886566 166.557480,71.844688 166.332993,70.078682 
	C166.333374,69.110489 166.333755,68.142296 166.853317,66.857208 
	C166.684799,65.511879 166.516281,64.166542 166.322388,62.274647 
	C166.335358,61.910248 166.348328,61.545849 166.919250,60.798946 
	C166.727188,58.808144 166.535110,56.817341 166.322388,54.166912 
	C166.340546,53.507347 166.358704,52.847778 166.812271,51.980480 
	C166.666031,51.257248 166.519791,50.534016 166.340454,49.271713 
	C166.350204,48.911945 166.359970,48.552174 166.701645,48.072388 
	C166.592072,47.649029 166.482498,47.225670 166.366226,46.023048 
	C166.382309,45.763783 166.398376,45.504520 166.608841,44.620472 
	C166.566360,43.535427 166.523880,42.450386 166.864990,41.123333 
	C166.706741,40.402580 166.548492,39.681828 166.322723,38.128822 
M180.841400,33.919582 
	C180.749191,35.053894 180.656982,36.188206 180.564774,37.322517 
	C181.313828,36.819637 182.062866,36.316761 182.937225,35.113033 
	C184.011444,33.423157 185.085678,31.733280 186.787506,29.780767 
	C189.100143,28.374832 191.412796,26.968897 194.514343,25.538708 
	C203.083710,23.854433 211.636230,21.017748 220.259445,25.794100 
	C218.836304,28.793753 217.559631,31.873682 215.966644,34.780247 
	C204.101166,56.430134 192.182404,78.050865 180.253723,99.666046 
	C178.575897,102.706314 176.753403,105.666748 174.811096,108.983025 
	C180.416794,108.983025 185.214508,108.983025 190.941147,109.102470 
	C198.328262,109.109589 205.716949,109.209084 213.101761,109.082191 
	C216.450439,109.024651 219.791428,108.518074 223.948273,108.278610 
	C228.302063,109.367592 233.642517,111.072723 236.400162,107.134781 
	C238.758408,103.767159 238.492935,98.562225 239.639374,92.936089 
	C233.125183,98.395218 228.052094,102.646645 222.135773,106.890030 
	C220.740372,106.788475 219.344986,106.686928 217.582977,106.259155 
	C217.055405,106.492096 216.527817,106.725037 215.063644,106.979973 
	C207.381683,106.966377 199.699722,106.952789 192.038528,106.225258 
	C193.010635,104.523026 193.999237,102.829956 194.952286,101.117119 
	C202.716675,87.162750 210.575745,73.259773 218.202194,59.230358 
	C224.328293,47.960930 230.170120,36.536972 236.691162,24.865654 
	C237.095886,23.456429 237.500626,22.047203 238.053085,20.123549 
	C224.496262,20.123549 211.802933,20.123549 198.466690,20.310534 
	C197.619614,20.575047 196.772537,20.839558 195.006378,21.011904 
	C190.463837,21.011904 185.921310,21.011904 181.081833,21.011904 
	C181.416672,24.490614 181.681335,27.240061 181.702728,30.670225 
	C181.591187,31.627213 181.479630,32.584198 180.841400,33.919582 
M7.241563,22.635296 
	C8.867933,24.553829 10.494303,26.472363 12.515981,29.200457 
	C12.656089,29.466078 12.796197,29.731697 12.837988,30.924421 
	C12.932928,35.939209 13.027869,40.953999 13.001556,46.899979 
	C13.056386,51.946640 13.111217,56.993298 12.917125,62.745605 
	C12.987329,65.483620 13.057531,68.221642 12.991165,71.835663 
	C13.040147,73.899277 13.089128,75.962891 12.883847,78.471535 
	C12.921311,79.314644 12.958776,80.157745 12.818211,81.912354 
	C12.898625,85.948364 12.979039,89.984367 12.877161,94.641281 
	C14.324524,100.618553 9.755178,104.271141 6.235702,109.057426 
	C13.133538,109.057426 18.855528,109.057426 25.576441,109.057426 
	C20.309671,105.972946 15.514494,103.481850 16.052013,96.645309 
	C15.746637,95.740952 15.441262,94.836586 14.942316,93.968636 
	C14.942316,93.968636 14.780513,94.080963 14.976115,93.161957 
	C14.940253,89.105537 14.904390,85.049110 14.956913,80.469589 
	C14.933092,80.294365 14.909271,80.119133 15.028590,79.077026 
	C15.093963,76.734825 15.159336,74.392616 15.717628,71.632973 
	C15.529628,69.744247 15.341628,67.855522 15.065677,65.054588 
	C15.111867,61.384705 15.158057,57.714825 15.653458,53.694836 
	C15.510192,52.447628 15.366926,51.200417 15.129354,49.175911 
	C15.160589,48.133987 15.191824,47.092060 15.459482,45.921394 
	C15.536419,45.800953 15.706147,45.635761 15.673542,45.568142 
	C15.558669,45.329926 15.374364,45.125191 15.082821,44.969608 
	C15.082821,44.969608 14.949989,45.033062 15.115809,44.197899 
	C15.217889,41.460518 15.319968,38.723141 16.138309,36.030907 
	C16.377520,36.033875 16.616728,36.036839 17.239618,36.601898 
	C22.273556,42.992950 27.500902,49.242870 32.293228,55.810226 
	C38.500622,64.316765 44.118347,73.258812 50.440304,81.675056 
	C56.588730,89.860283 63.234318,97.678497 69.828484,105.517479 
	C71.292107,107.257408 73.454987,108.409111 75.428642,109.899712 
	C75.428642,109.899712 75.550133,109.816689 75.550133,109.816689 
	C75.550133,109.816689 75.300179,109.805489 75.704002,108.969078 
	C75.880486,103.665764 76.056969,98.362442 76.771240,92.539574 
	C77.176163,90.467056 77.922852,88.396095 77.932259,86.321785 
	C78.011566,68.843414 77.956001,51.364437 77.999741,33.131027 
	C77.857819,29.923344 76.644753,26.420839 80.977661,24.046686 
	C81.786575,23.148180 82.595482,22.249674 84.264336,20.395983 
	C81.870506,20.969820 80.784264,21.230209 78.813316,21.435104 
	C74.899773,21.413666 70.986229,21.392225 66.779121,20.828787 
	C65.977646,20.633911 65.176170,20.439037 64.374695,20.244162 
	C64.195282,20.545753 64.015869,20.847345 63.836460,21.148939 
	C64.927917,22.058786 66.019371,22.968634 67.720306,24.019674 
	C68.237503,24.332611 68.754700,24.645548 69.292168,25.606329 
	C69.890198,26.002201 70.488235,26.398073 71.232628,26.912439 
	C71.232628,26.912439 71.416603,26.872231 71.242722,27.678850 
	C71.832924,31.333456 72.879967,34.981342 72.933861,38.643841 
	C73.161339,54.100235 73.092834,69.560989 72.745949,85.531364 
	C69.610931,82.009583 66.245926,78.664490 63.381027,74.935188 
	C51.460152,59.417515 39.322159,44.043243 28.057878,28.056850 
	C23.946602,22.222082 19.769005,19.653322 12.158162,21.053625 
	C10.764988,21.109781 9.371813,21.165939 7.547592,21.223251 
	C7.233010,21.384485 7.140973,21.629364 7.241563,22.635296 
M321.579376,59.813793 
	C321.565277,57.755325 321.551208,55.696861 321.551086,52.837959 
	C321.557190,50.965683 321.563324,49.093403 321.830353,46.290924 
	C321.773926,41.839828 321.717499,37.388729 321.680664,32.187180 
	C321.667542,31.436588 321.654419,30.685995 322.227692,29.529232 
	C322.353363,28.629215 322.479034,27.729200 322.724640,26.362534 
	C322.724640,26.362534 322.955200,25.939484 323.401520,25.852240 
	C323.507477,25.743563 323.716156,25.616169 323.700409,25.529652 
	C323.649414,25.249737 323.516022,24.984840 323.800446,24.340965 
	C324.119293,23.744638 324.438141,23.148312 325.167297,22.218739 
	C325.440216,21.696342 325.713165,21.173944 325.986084,20.651548 
	C325.282227,20.542305 324.578339,20.433062 322.970612,20.242516 
	C319.082428,20.242516 315.194244,20.242516 310.170410,20.242516 
	C312.733521,23.751999 314.729340,26.077051 316.239319,28.683571 
	C317.408813,30.702217 317.970581,33.072903 318.748871,36.185619 
	C318.770203,42.642212 318.885284,49.100178 318.790619,55.555073 
	C318.652527,64.971909 318.363617,74.386536 317.520905,84.165504 
	C316.563354,91.206032 314.537476,97.694351 308.457855,102.181671 
	C308.069733,102.468147 308.141846,103.378242 307.323151,104.006500 
	C306.650970,104.535095 305.978760,105.063690 305.306549,105.592270 
	C305.874725,105.712746 306.442932,105.833214 307.460358,106.251938 
	C316.564545,101.615173 320.048492,93.587860 320.964691,83.526993 
	C320.964691,83.526993 320.888885,83.082924 321.227448,82.302437 
	C321.169708,75.043533 321.111969,67.784630 321.579376,59.813793 
M355.037384,102.219574 
	C354.426544,99.757462 353.815704,97.295349 353.203979,93.916862 
	C353.206360,73.002350 353.208771,52.087841 353.787872,30.772608 
	C355.542877,27.695824 357.297913,24.619041 359.623688,20.541641 
	C357.388062,20.882132 355.565796,21.159662 352.844452,21.411690 
	C347.983002,21.412439 343.121521,21.413189 337.769196,21.265646 
	C337.287140,21.540506 336.805115,21.815365 336.323059,22.090231 
	C336.843781,22.427212 337.364471,22.764193 337.997040,23.816063 
	C338.732422,25.558428 339.467804,27.300795 340.196838,29.606939 
	C340.437408,29.891541 340.678009,30.176142 340.803009,30.709337 
	C340.803009,30.709337 340.923309,30.955700 340.811371,31.798372 
	C340.788666,33.496258 340.765961,35.194141 340.341919,36.916676 
	C340.341919,36.916676 339.959869,37.042137 339.222015,37.485382 
	C339.190002,58.587650 339.157990,79.689919 339.046875,101.585022 
	C339.088409,102.114777 339.129913,102.644531 338.763214,103.676949 
	C338.207184,104.786575 337.651123,105.896210 337.043121,107.871529 
	C344.022705,107.837143 351.002258,107.802765 358.710938,107.909294 
	C366.124390,108.354263 373.533905,109.075272 380.952209,109.181091 
	C392.805695,109.350174 392.808167,109.177414 393.082794,96.408134 
	C392.886841,95.489738 392.690887,94.571350 392.494934,93.652954 
	C392.281952,94.342300 392.069000,95.031647 391.305115,96.129669 
	C385.691132,101.855972 379.558838,106.531349 370.043579,106.057739 
	C366.724152,106.107430 363.404755,106.157120 359.522461,106.344124 
	C359.008026,106.586525 358.493561,106.828918 357.731415,106.476059 
	C356.820038,105.338577 355.908661,104.201096 355.037384,102.219574 
z"/>
<path fill="#68645C" opacity="1.000000" stroke="none" 
	d="
M12.988861,21.175154 
	C19.769005,19.653322 23.946602,22.222082 28.057878,28.056850 
	C39.322159,44.043243 51.460152,59.417515 63.381027,74.935188 
	C66.245926,78.664490 69.610931,82.009583 73.217697,85.269196 
	C74.060768,85.009430 74.432091,85.011826 75.073486,85.006233 
	C75.523262,84.985970 75.702972,84.973694 75.936165,85.309402 
	C75.957901,86.124542 75.926163,86.591682 75.772888,87.278137 
	C75.702766,88.295761 75.754189,89.094070 75.871750,90.286789 
	C76.036415,91.473846 76.134933,92.266487 76.233452,93.059128 
	C76.056969,98.362442 75.880486,103.665764 75.528885,109.400505 
	C75.353775,109.831932 75.295906,109.831650 75.295906,109.831650 
	C73.454987,108.409111 71.292107,107.257408 69.828484,105.517479 
	C63.234318,97.678497 56.588730,89.860283 50.440304,81.675056 
	C44.118347,73.258812 38.500622,64.316765 32.293228,55.810226 
	C27.500902,49.242870 22.273556,42.992950 17.079285,35.989883 
	C16.908255,34.934605 16.897558,34.491344 16.903479,33.809158 
	C15.592165,32.379261 14.264235,31.188286 12.936304,29.997314 
	C12.796197,29.731697 12.656089,29.466078 12.258936,28.484745 
	C12.330881,25.571072 12.659871,23.373114 12.988861,21.175154 
z"/>
<path fill="#67635C" opacity="1.000000" stroke="none" 
	d="
M190.012207,108.983032 
	C185.214508,108.983025 180.416794,108.983025 174.811096,108.983025 
	C176.753403,105.666748 178.575897,102.706314 180.253723,99.666046 
	C192.182404,78.050865 204.101166,56.430134 215.966644,34.780247 
	C217.559631,31.873682 218.836304,28.793753 220.591873,25.419426 
	C221.978424,24.046680 223.032562,23.048607 224.536865,22.052357 
	C227.597855,22.052900 230.270981,21.718752 232.793121,22.191031 
	C234.050674,22.426510 235.031891,24.137848 236.138092,25.181595 
	C230.170120,36.536972 224.328293,47.960930 218.202194,59.230358 
	C210.575745,73.259773 202.716675,87.162750 194.952286,101.117119 
	C193.999237,102.829956 193.010635,104.523026 191.851562,106.808411 
	C191.113800,107.922050 190.563004,108.452545 190.012207,108.983032 
z"/>
<path fill="#69655E" opacity="1.000000" stroke="none" 
	d="
M95.663071,29.966785 
	C94.509064,28.221067 93.355064,26.475348 92.205162,24.091995 
	C99.175758,23.338184 106.142258,23.222002 113.108749,23.105822 
	C110.015648,26.788328 109.027428,30.964750 109.101700,35.808495 
	C109.331154,50.772949 108.767967,65.756638 109.266853,80.707695 
	C109.684113,93.212219 114.776703,104.525299 127.082153,107.293381 
	C131.593750,108.308250 136.479507,107.659714 141.391998,108.111824 
	C139.137741,108.986679 136.672302,109.464401 134.238541,110.069466 
	C132.133270,110.592880 130.063919,111.260910 127.978699,111.865021 
	C120.852402,108.828712 113.440887,106.311592 106.685287,102.600479 
	C100.715355,99.320976 98.200806,92.966881 96.472977,86.578033 
	C95.804680,84.106918 95.614281,81.506554 95.504410,78.280823 
	C96.120567,76.340164 96.706062,75.085686 96.715141,73.827057 
	C96.809128,60.784512 96.850296,47.741096 96.784889,34.698532 
	C96.776962,33.119450 96.054413,31.543947 95.663071,29.966785 
z"/>
<path fill="#68645C" opacity="1.000000" stroke="none" 
	d="
M340.923309,30.955700 
	C340.923309,30.955700 340.803009,30.709337 340.873962,30.215450 
	C340.957733,29.476252 340.970551,29.230940 341.005676,28.977032 
	C341.027985,28.968437 341.013397,29.016705 340.810974,29.026913 
	C340.608521,29.037123 340.203156,29.043167 340.203186,29.043163 
	C339.467804,27.300795 338.732422,25.558428 338.013916,23.179554 
	C338.107208,22.166676 338.183655,21.790306 338.260071,21.413937 
	C343.121521,21.413189 347.983002,21.412439 353.404358,21.738214 
	C353.713226,25.100937 353.462189,28.137135 353.211182,31.173330 
	C353.208771,52.087841 353.206360,73.002350 353.123596,94.775436 
	C352.981720,96.448174 352.920227,97.262344 352.798950,98.263916 
	C352.811127,98.956223 352.883057,99.461113 353.066284,100.277863 
	C353.475616,101.644615 353.773682,102.699509 353.907684,104.100235 
	C351.938995,105.286392 350.190491,106.656372 348.317810,106.854927 
	C344.613220,107.247726 340.839966,106.992912 337.095093,107.005836 
	C337.651123,105.896210 338.207184,104.786575 339.192505,103.327118 
	C339.977417,102.644379 340.333038,102.311470 340.882202,101.610275 
	C341.384216,99.468895 341.955688,97.696571 341.960815,95.922600 
	C342.017853,76.198875 342.016510,56.474770 341.934296,36.751171 
	C341.926208,34.817974 341.275665,32.887459 340.923309,30.955700 
z"/>
<path fill="#68645C" opacity="1.000000" stroke="none" 
	d="
M256.991791,96.988640 
	C255.417145,94.214958 253.842514,91.441277 252.457977,88.106758 
	C252.902557,86.785316 253.382721,86.023407 253.378326,85.264297 
	C253.283997,68.978516 253.166824,52.692657 252.963745,36.407940 
	C252.933029,33.944843 252.453384,31.487350 251.858154,29.005398 
	C251.103821,28.976215 250.672729,28.968901 250.241638,28.961590 
	C250.149673,28.552364 250.057724,28.143141 249.900818,27.083134 
	C249.612717,25.158733 249.389587,23.885115 249.030228,21.834021 
	C254.178772,21.834021 258.965973,21.834021 264.129913,21.871431 
	C265.684723,22.290066 266.862823,22.671291 268.040924,23.052513 
	C267.124786,25.143921 266.208649,27.235332 264.925568,29.923370 
	C264.346649,31.698528 264.134705,32.877060 263.800232,34.321354 
	C263.752838,35.703564 263.827972,36.820011 263.946991,38.407291 
	C263.963043,45.940849 263.935211,53.003574 263.764435,60.416180 
	C263.710266,63.485870 263.799042,66.205681 263.938721,69.352844 
	C263.954620,71.212082 263.919556,72.643974 263.741455,74.434448 
	C263.721985,77.853653 263.845581,80.914276 264.015533,84.156410 
	C264.061859,84.337914 264.072540,84.712410 264.068726,85.101242 
	C264.070709,85.749245 264.076508,86.008415 264.082306,86.267586 
	C267.263977,92.185730 268.639923,99.230286 274.698669,103.907578 
	C273.425385,105.354713 272.182251,106.229240 270.939087,107.103760 
	C264.785431,106.561508 261.631470,101.631317 257.591858,97.593048 
	C257.386414,97.130417 257.189087,97.059532 256.991791,96.988640 
z"/>
<path fill="#67635C" opacity="1.000000" stroke="none" 
	d="
M392.955200,96.998230 
	C392.808167,109.177414 392.805695,109.350174 380.952209,109.181091 
	C373.533905,109.075272 366.124390,108.354263 358.340942,107.664589 
	C357.970917,107.419884 357.979126,107.071312 357.979126,107.071312 
	C358.493561,106.828918 359.008026,106.586525 360.174377,106.386215 
	C364.198700,106.342888 367.571045,106.257477 370.943420,106.172066 
	C379.558838,106.531349 385.691132,101.855972 391.676392,96.063370 
	C392.350159,96.330803 392.652679,96.664520 392.955200,96.998230 
z"/>
<path fill="#746F67" opacity="1.000000" stroke="none" 
	d="
M163.625626,74.835411 
	C163.665192,71.237854 163.704758,67.640305 163.814713,63.125557 
	C163.932709,57.927166 163.788437,53.630333 164.135284,49.373516 
	C164.251678,47.945007 165.618912,46.618423 166.414429,45.245255 
	C166.398376,45.504520 166.382309,45.763783 166.311707,46.760101 
	C166.294708,47.728905 166.332214,47.960655 166.369736,48.192406 
	C166.359970,48.552174 166.350204,48.911945 166.267761,49.934265 
	C166.255661,51.127281 166.316269,51.657749 166.376862,52.188213 
	C166.358704,52.847778 166.340546,53.507347 166.220459,54.941433 
	C166.199448,57.537785 166.280365,59.359619 166.361298,61.181450 
	C166.348328,61.545849 166.335358,61.910248 166.225464,62.975742 
	C166.197067,64.842590 166.265594,66.008347 166.334137,67.174103 
	C166.333755,68.142296 166.333374,69.110489 166.259705,70.859055 
	C166.254196,72.491364 166.321991,73.343315 166.389771,74.195259 
	C166.363312,75.216942 166.336838,76.238632 166.001251,77.833893 
	C165.999771,79.564781 166.307404,80.722099 166.615051,81.879417 
	C165.055099,87.016586 163.495163,92.153755 161.548523,97.567642 
	C160.224518,97.591454 159.287201,97.338539 158.349884,97.085625 
	C159.684937,93.102753 161.174042,89.162819 162.300018,85.121689 
	C163.031815,82.495277 163.234482,79.721420 163.704376,76.258575 
	C163.698257,75.280815 163.661942,75.058113 163.625626,74.835411 
z"/>
<path fill="#6C6961" opacity="1.000000" stroke="none" 
	d="
M222.979004,106.898079 
	C228.052094,102.646645 233.125183,98.395218 239.639374,92.936089 
	C238.492935,98.562225 238.758408,103.767159 236.400162,107.134781 
	C233.642517,111.072723 228.302063,109.367592 223.498566,107.918137 
	C223.025574,107.337807 223.002289,107.117943 222.979004,106.898079 
z"/>
<path fill="#19160F" opacity="1.000000" stroke="none" 
	d="
M75.894424,87.058823 
	C75.926163,86.591682 75.957901,86.124542 75.978760,84.844894 
	C76.003059,66.690475 76.038231,49.348557 76.280762,32.188763 
	C76.972412,32.875809 77.456703,33.380726 77.940994,33.885643 
	C77.956001,51.364437 78.011566,68.843414 77.932259,86.321785 
	C77.922852,88.396095 77.176163,90.467056 76.502350,92.799347 
	C76.134933,92.266487 76.036415,91.473846 75.927856,89.935280 
	C75.910019,88.479179 75.902222,87.768997 75.894424,87.058823 
z"/>
<path fill="#6C6961" opacity="1.000000" stroke="none" 
	d="
M15.877436,97.154823 
	C15.514494,103.481850 20.309671,105.972946 25.576441,109.057426 
	C18.855528,109.057426 13.133538,109.057426 6.235702,109.057426 
	C9.755178,104.271141 14.324524,100.618553 13.255012,94.344635 
	C14.015412,94.058975 14.397963,94.069969 14.780513,94.080963 
	C14.780513,94.080963 14.942316,93.968636 14.954838,94.295158 
	C15.270720,95.466064 15.574079,96.310440 15.877436,97.154823 
z"/>
<path fill="#69655E" opacity="1.000000" stroke="none" 
	d="
M324.756958,22.551991 
	C324.438141,23.148312 324.119293,23.744638 323.478638,24.829090 
	C323.089630,25.524635 323.022430,25.732059 322.955200,25.939484 
	C322.955200,25.939484 322.724640,26.362534 322.428497,26.730825 
	C321.968658,28.044546 321.804962,28.989973 321.641235,29.935402 
	C321.654419,30.685995 321.667542,31.436588 321.496033,32.763519 
	C320.942780,33.947006 320.574158,34.554157 320.102448,35.049324 
	C319.600403,35.053921 319.201447,35.170506 318.802521,35.287090 
	C317.970581,33.072903 317.408813,30.702217 316.239319,28.683571 
	C314.729340,26.077051 312.733521,23.751999 310.170410,20.242516 
	C315.194244,20.242516 319.082428,20.242516 323.548889,20.662603 
	C324.337097,21.572458 324.547028,22.062227 324.756958,22.551991 
z"/>
<path fill="#646058" opacity="1.000000" stroke="none" 
	d="
M193.725433,25.562960 
	C191.412796,26.968897 189.100143,28.374832 186.052460,29.897972 
	C184.193619,30.006618 183.069794,29.998062 181.945984,29.989506 
	C181.681335,27.240061 181.416672,24.490614 181.081833,21.011904 
	C185.921310,21.011904 190.463837,21.011904 195.472443,21.386766 
	C195.200806,23.028740 194.463120,24.295851 193.725433,25.562960 
z"/>
<path fill="#5C5950" opacity="1.000000" stroke="none" 
	d="
M158.013580,97.197113 
	C159.287201,97.338539 160.224518,97.591454 161.454620,97.885742 
	C158.084396,101.159950 154.833679,105.132950 150.663788,107.455910 
	C144.051453,111.139488 136.676376,112.970604 128.441620,111.905960 
	C130.063919,111.260910 132.133270,110.592880 134.238541,110.069466 
	C136.672302,109.464401 139.137741,108.986679 141.821640,108.145844 
	C148.607834,109.506935 150.572861,103.064018 154.762100,100.563881 
	C155.956131,99.851280 156.717514,98.413712 158.013580,97.197113 
z"/>
<path fill="#444037" opacity="1.000000" stroke="none" 
	d="
M95.482506,30.338905 
	C96.054413,31.543947 96.776962,33.119450 96.784889,34.698532 
	C96.850296,47.741096 96.809128,60.784512 96.715141,73.827057 
	C96.706062,75.085686 96.120567,76.340164 95.545746,77.865654 
	C95.293205,62.326836 95.297577,46.518929 95.482506,30.338905 
z"/>
<path fill="#77756B" opacity="1.000000" stroke="none" 
	d="
M271.242188,107.260056 
	C272.182251,106.229240 273.425385,105.354713 274.843475,104.206940 
	C281.755585,108.607903 289.421753,108.174171 297.697052,108.133675 
	C298.593384,108.566483 298.844116,108.806503 299.094879,109.046524 
	C297.466187,109.694778 295.861755,110.825684 294.204651,110.908936 
	C286.439209,111.299080 278.738068,110.901009 271.242188,107.260056 
z"/>
<path fill="#69655E" opacity="1.000000" stroke="none" 
	d="
M77.970367,33.508335 
	C77.456703,33.380726 76.972412,32.875809 76.079422,32.355984 
	C75.409805,32.573170 75.148888,32.805264 74.731842,32.741837 
	C73.522682,30.588289 72.469643,28.730259 71.416603,26.872231 
	C71.416603,26.872231 71.232628,26.912439 71.045563,26.611221 
	C70.329636,25.859495 69.800766,25.408989 69.271896,24.958485 
	C68.754700,24.645548 68.237503,24.332611 67.395615,23.635609 
	C67.071510,22.624624 67.072098,21.997705 67.072678,21.370787 
	C70.986229,21.392225 74.899773,21.413666 79.334038,21.817253 
	C80.047127,22.897791 80.239487,23.596176 80.431854,24.294563 
	C76.644753,26.420839 77.857819,29.923344 77.970367,33.508335 
z"/>
<path fill="#646058" opacity="1.000000" stroke="none" 
	d="
M320.900757,83.972916 
	C320.048492,93.587860 316.564545,101.615173 307.315125,105.839119 
	C307.446533,104.950279 307.723206,104.474266 307.999878,103.998245 
	C308.141846,103.378242 308.069733,102.468147 308.457855,102.181671 
	C314.537476,97.694351 316.563354,91.206032 318.290527,84.032669 
	C319.673676,83.924194 320.287201,83.948555 320.900757,83.972916 
z"/>
<path fill="#39362E" opacity="1.000000" stroke="none" 
	d="
M194.119888,25.550835 
	C194.463120,24.295851 195.200806,23.028740 195.931976,21.432850 
	C196.772537,20.839558 197.619614,20.575047 199.158646,20.375130 
	C202.992126,20.631199 206.134720,20.806835 209.274933,21.017796 
	C214.213013,21.349537 219.149521,21.705072 224.086685,22.050533 
	C223.032562,23.048607 221.978424,24.046680 220.607559,25.103302 
	C211.636230,21.017748 203.083710,23.854433 194.119888,25.550835 
z"/>
<path fill="#5C5950" opacity="1.000000" stroke="none" 
	d="
M71.329666,27.275539 
	C72.469643,28.730259 73.522682,30.588289 74.760300,33.166084 
	C74.929138,35.302738 74.913391,36.719627 74.704277,38.489548 
	C74.629898,49.174473 74.748878,59.506359 74.875381,70.314453 
	C74.856400,75.531845 74.829903,80.273033 74.803406,85.014229 
	C74.432091,85.011826 74.060768,85.009430 73.411018,85.013588 
	C73.092834,69.560989 73.161339,54.100235 72.933861,38.643841 
	C72.879967,34.981342 71.832924,31.333456 71.329666,27.275539 
z"/>
<path fill="#2B2821" opacity="1.000000" stroke="none" 
	d="
M263.922729,34.055592 
	C264.134705,32.877060 264.346649,31.698528 264.808167,30.261436 
	C265.354156,35.058258 265.650543,40.113636 265.635925,45.928688 
	C265.222565,54.487385 265.011047,62.287151 265.063782,70.085121 
	C265.090302,74.005821 265.597046,77.923264 265.886597,81.842178 
	C265.672485,82.700279 265.458405,83.558388 264.880615,84.654510 
	C264.516907,84.892517 264.072540,84.712410 264.072540,84.712410 
	C264.072540,84.712410 264.061859,84.337914 264.038818,83.706383 
	C263.972046,80.075188 263.928284,77.075531 263.884521,74.075867 
	C263.919556,72.643974 263.954620,71.212082 263.972656,68.911316 
	C263.939575,65.383728 263.923462,62.725014 263.907379,60.066299 
	C263.935211,53.003574 263.963043,45.940849 263.990295,38.020699 
	C263.967407,36.127377 263.945068,35.091484 263.922729,34.055592 
z"/>
<path fill="#646058" opacity="1.000000" stroke="none" 
	d="
M161.256195,28.922432 
	C160.992783,28.073341 160.729385,27.224253 160.095398,25.955862 
	C159.526215,25.317656 159.298096,25.135805 159.040421,24.991009 
	C158.673096,24.585083 158.305756,24.179157 158.163467,23.312735 
	C162.568298,22.870396 166.748077,22.888552 170.927872,22.906708 
	C169.835205,24.537497 168.742538,26.168287 167.222839,27.850170 
	C166.547455,28.359190 166.299133,28.817116 166.051483,29.459427 
	C166.052155,29.643810 165.992401,30.007706 165.814545,30.253180 
	C165.436539,30.849419 165.236374,31.200184 165.365204,31.921417 
	C165.828934,32.593487 165.963638,32.895092 165.454163,33.058464 
	C163.958725,32.723263 163.107483,32.526295 162.256241,32.329330 
	C162.256241,32.329330 162.290894,31.979326 162.422394,31.491091 
	C162.121323,30.309380 161.688751,29.615906 161.256195,28.922432 
z"/>
<path fill="#7D7871" opacity="1.000000" stroke="none" 
	d="
M340.867340,31.377035 
	C341.275665,32.887459 341.926208,34.817974 341.934296,36.751171 
	C342.016510,56.474770 342.017853,76.198875 341.960815,95.922600 
	C341.955688,97.696571 341.384216,99.468895 340.955017,101.147346 
	C340.803955,79.665810 340.773590,58.278919 340.743256,36.892025 
	C340.765961,35.194141 340.788666,33.496258 340.867340,31.377035 
z"/>
<path fill="#7D7871" opacity="1.000000" stroke="none" 
	d="
M252.181396,29.027266 
	C252.453384,31.487350 252.933029,33.944843 252.963745,36.407940 
	C253.166824,52.692657 253.283997,68.978516 253.378326,85.264297 
	C253.382721,86.023407 252.902557,86.785316 252.403473,87.753937 
	C251.777176,85.264343 251.395462,82.566727 251.013626,79.433868 
	C251.013519,78.998611 251.025681,79.053398 251.314972,78.742477 
	C251.728180,62.302589 251.852112,46.173618 252.038132,29.792473 
	C252.127274,29.369286 252.154343,29.198277 252.181396,29.027266 
z"/>
<path fill="#2B2821" opacity="1.000000" stroke="none" 
	d="
M340.542603,36.904350 
	C340.773590,58.278919 340.803955,79.665810 340.761475,101.515633 
	C340.333038,102.311470 339.977417,102.644379 339.396606,103.075790 
	C339.129913,102.644531 339.088409,102.114777 339.283569,100.841339 
	C339.675659,98.291550 339.963837,96.485619 339.966095,94.679329 
	C339.990112,75.466965 339.968750,56.254543 339.959900,37.042137 
	C339.959869,37.042137 340.341919,36.916676 340.542603,36.904350 
z"/>
<path fill="#7D7871" opacity="1.000000" stroke="none" 
	d="
M320.932739,83.749954 
	C320.287201,83.948555 319.673676,83.924194 318.599548,83.850967 
	C318.363617,74.386536 318.652527,64.971909 318.790619,55.555073 
	C318.885284,49.100178 318.770203,42.642212 318.775696,35.736355 
	C319.201447,35.170506 319.600403,35.053921 320.110229,35.415886 
	C320.203735,36.629620 320.186371,37.364796 320.103760,38.528946 
	C320.343445,41.485973 320.648346,44.014034 320.940491,46.732258 
	C321.061859,47.193432 321.275757,47.292999 321.569427,47.221127 
	C321.563324,49.093403 321.557190,50.965683 321.586823,53.181030 
	C321.622559,53.524097 321.521667,53.419899 321.150818,53.712387 
	C320.816254,63.697559 320.852570,73.390244 320.888885,83.082924 
	C320.888885,83.082924 320.964691,83.526993 320.932739,83.749954 
z"/>
<path fill="#77756B" opacity="1.000000" stroke="none" 
	d="
M339.590942,37.263760 
	C339.968750,56.254543 339.990112,75.466965 339.966095,94.679329 
	C339.963837,96.485619 339.675659,98.291550 339.323120,100.444916 
	C339.157990,79.689919 339.190002,58.587650 339.590942,37.263760 
z"/>
<path fill="#4C463E" opacity="1.000000" stroke="none" 
	d="
M113.363449,22.956841 
	C106.142258,23.222002 99.175758,23.338184 92.029129,23.814587 
	C90.395988,23.145145 88.942993,22.115482 86.667183,20.502741 
	C96.473618,20.502741 105.444893,20.502741 114.842896,20.502741 
	C114.420708,21.297340 114.019432,22.052599 113.363449,22.956841 
z"/>
<path fill="#8A877F" opacity="1.000000" stroke="none" 
	d="
M222.557388,106.894058 
	C223.002289,107.117943 223.025574,107.337807 223.092377,107.886436 
	C219.791428,108.518074 216.450439,109.024651 213.101761,109.082191 
	C205.716949,109.209084 198.328262,109.109589 190.476685,109.042755 
	C190.563004,108.452545 191.113800,107.922050 191.841171,107.165382 
	C199.699722,106.952789 207.381683,106.966377 215.676117,107.214554 
	C216.842255,107.161209 217.395920,106.873291 217.949585,106.585373 
	C219.344986,106.686928 220.740372,106.788475 222.557388,106.894058 
z"/>
<path fill="#4C463E" opacity="1.000000" stroke="none" 
	d="
M224.536865,22.052357 
	C219.149521,21.705072 214.213013,21.349537 209.274933,21.017796 
	C206.134720,20.806835 202.992126,20.631199 199.480103,20.281635 
	C211.802933,20.123549 224.496262,20.123549 238.053085,20.123549 
	C237.500626,22.047203 237.095886,23.456429 236.414642,25.023628 
	C235.031891,24.137848 234.050674,22.426510 232.793121,22.191031 
	C230.270981,21.718752 227.597855,22.052900 224.536865,22.052357 
z"/>
<path fill="#837C75" opacity="1.000000" stroke="none" 
	d="
M15.223059,46.050137 
	C15.191824,47.092060 15.160589,48.133987 15.095222,49.968884 
	C15.108809,51.856216 15.156528,52.950581 15.204247,54.044941 
	C15.158057,57.714825 15.111867,61.384705 15.032358,65.940567 
	C15.074264,68.567841 15.149487,70.309128 15.224710,72.050415 
	C15.159336,74.392616 15.093963,76.734825 14.767164,79.333099 
	C14.049862,79.068283 13.593986,78.547394 13.138109,78.026505 
	C13.089128,75.962891 13.040147,73.899277 13.217693,71.051819 
	C13.351497,67.525299 13.258772,64.782631 13.166046,62.039959 
	C13.111217,56.993298 13.056386,51.946640 13.293742,46.323483 
	C14.040615,45.509010 14.495302,45.271034 14.949989,45.033062 
	C14.949989,45.033062 15.082821,44.969608 15.093204,45.224613 
	C15.143412,45.669792 15.183235,45.859962 15.223059,46.050137 
z"/>
<path fill="#6C6961" opacity="1.000000" stroke="none" 
	d="
M15.032899,44.615479 
	C14.495302,45.271034 14.040615,45.509010 13.354368,45.857887 
	C13.027869,40.953999 12.932928,35.939209 12.887146,30.460869 
	C14.264235,31.188286 15.592165,32.379261 16.640976,33.814484 
	C16.048586,34.701073 15.735316,35.343418 15.422048,35.985760 
	C15.319968,38.723141 15.217889,41.460518 15.032899,44.615479 
z"/>
<path fill="#6C6961" opacity="1.000000" stroke="none" 
	d="
M357.855286,106.773682 
	C357.979126,107.071312 357.970917,107.419884 357.976379,107.594131 
	C351.002258,107.802765 344.022705,107.837143 337.069092,107.438683 
	C340.839966,106.992912 344.613220,107.247726 348.317810,106.854927 
	C350.190491,106.656372 351.938995,105.286392 354.099792,104.043015 
	C354.704803,103.512100 354.885223,103.319984 354.997253,103.063614 
	C355.908661,104.201096 356.820038,105.338577 357.855286,106.773682 
z"/>
<path fill="#5C5950" opacity="1.000000" stroke="none" 
	d="
M251.858154,29.005398 
	C252.154343,29.198277 252.127274,29.369286 251.839539,30.151115 
	C251.369217,32.731995 250.982254,34.701710 250.978363,36.672180 
	C250.950455,50.799164 251.000443,64.926308 251.025681,79.053398 
	C251.025681,79.053398 251.013519,78.998611 251.040176,79.009689 
	C250.713348,77.664940 250.056854,76.310005 250.052841,74.953133 
	C250.008377,59.933662 250.065109,44.913895 250.168060,29.427898 
	C250.672729,28.968901 251.103821,28.976215 251.858154,29.005398 
z"/>
<path fill="#39362E" opacity="1.000000" stroke="none" 
	d="
M321.058167,82.692680 
	C320.852570,73.390244 320.816254,63.697559 321.029175,54.213966 
	C321.203674,56.457283 321.128967,58.491505 321.054260,60.525730 
	C321.111969,67.784630 321.169708,75.043533 321.058167,82.692680 
z"/>
<path fill="#4C463E" opacity="1.000000" stroke="none" 
	d="
M171.247955,22.810150 
	C166.748077,22.888552 162.568298,22.870396 158.007385,23.080700 
	C156.304474,22.713421 154.982697,22.117680 153.660934,21.521938 
	C153.678223,21.230946 153.695511,20.939953 153.712799,20.648960 
	C160.209412,20.648960 166.706039,20.648960 173.909424,20.648960 
	C172.856018,21.577856 172.212021,22.145723 171.247955,22.810150 
z"/>
<path fill="#2B2821" opacity="1.000000" stroke="none" 
	d="
M166.511627,44.932861 
	C165.618912,46.618423 164.251678,47.945007 164.135284,49.373516 
	C163.788437,53.630333 163.932709,57.927166 163.786407,62.677410 
	C163.687698,63.146454 163.290466,63.106884 163.121658,62.559914 
	C163.003647,53.027122 163.054443,44.041302 163.294006,35.038185 
	C163.482773,35.020893 163.861343,35.000233 163.906982,35.594734 
	C164.679749,37.924862 165.406860,39.660492 166.168152,41.389206 
	C166.202301,41.382290 166.481384,41.365341 166.481384,41.365341 
	C166.523880,42.450386 166.566360,43.535427 166.511627,44.932861 
z"/>
<path fill="#77756B" opacity="1.000000" stroke="none" 
	d="
M265.921387,81.384720 
	C265.597046,77.923264 265.090302,74.005821 265.063782,70.085121 
	C265.011047,62.287151 265.222565,54.487385 265.623962,46.401772 
	C265.934082,57.719204 265.945099,69.323235 265.921387,81.384720 
z"/>
<path fill="#4C463E" opacity="1.000000" stroke="none" 
	d="
M268.393188,23.026924 
	C266.862823,22.671291 265.684723,22.290066 263.767975,21.741642 
	C258.067596,21.104179 253.105850,20.633917 248.144104,20.163654 
	C255.893127,20.163654 263.642151,20.163654 271.391144,20.163654 
	C271.447540,20.737427 271.503906,21.311201 271.560272,21.884974 
	C270.621979,22.257093 269.683716,22.629213 268.393188,23.026924 
z"/>
<path fill="#39362E" opacity="1.000000" stroke="none" 
	d="
M247.845978,20.172960 
	C253.105850,20.633917 258.067596,21.104179 263.391266,21.704231 
	C258.965973,21.834021 254.178772,21.834021 249.030228,21.834021 
	C249.389587,23.885115 249.612717,25.158733 249.837128,26.774944 
	C245.448456,23.344709 245.343414,23.026672 247.845978,20.172960 
z"/>
<path fill="#39362E" opacity="1.000000" stroke="none" 
	d="
M353.499512,30.972969 
	C353.462189,28.137135 353.713226,25.100937 353.853882,21.750967 
	C355.565796,21.159662 357.388062,20.882132 359.623688,20.541641 
	C357.297913,24.619041 355.542877,27.695824 353.499512,30.972969 
z"/>
<path fill="#746F67" opacity="1.000000" stroke="none" 
	d="
M163.105255,35.055481 
	C163.054443,44.041302 163.003647,53.027122 162.939819,62.477661 
	C162.615204,58.756954 162.151611,54.575909 162.030945,50.384995 
	C161.883545,45.265671 162.023941,40.138065 162.261017,34.690613 
	C162.691147,34.595440 162.898849,34.824871 163.105255,35.055481 
z"/>
<path fill="#68645C" opacity="1.000000" stroke="none" 
	d="
M14.878314,93.621460 
	C14.397963,94.069969 14.015412,94.058975 13.346157,94.034180 
	C12.979039,89.984367 12.898625,85.948364 13.219273,81.455132 
	C14.036399,80.996170 14.452463,80.994431 14.868528,80.992691 
	C14.904390,85.049110 14.940253,89.105537 14.878314,93.621460 
z"/>
<path fill="#6C6961" opacity="1.000000" stroke="none" 
	d="
M12.573511,21.114389 
	C12.659871,23.373114 12.330881,25.571072 12.061281,28.079964 
	C10.494303,26.472363 8.867933,24.553829 7.384100,22.183567 
	C7.690310,21.573458 7.840977,21.403543 7.978638,21.222095 
	C9.371813,21.165939 10.764988,21.109781 12.573511,21.114389 
z"/>
<path fill="#6C6961" opacity="1.000000" stroke="none" 
	d="
M13.041586,62.392784 
	C13.258772,64.782631 13.351497,67.525299 13.285978,70.613815 
	C13.057531,68.221642 12.987329,65.483620 13.041586,62.392784 
z"/>
<path fill="#444037" opacity="1.000000" stroke="none" 
	d="
M320.169006,38.099976 
	C320.186371,37.364796 320.203735,36.629620 320.213318,35.527874 
	C320.574158,34.554157 320.942780,33.947006 321.486237,33.138744 
	C321.717499,37.388729 321.773926,41.839828 321.699890,46.756027 
	C321.275757,47.292999 321.061859,47.193432 320.945770,46.278797 
	C320.698853,43.123440 320.433929,40.611710 320.169006,38.099976 
z"/>
<path fill="#39362E" opacity="1.000000" stroke="none" 
	d="
M355.017334,102.641602 
	C354.885223,103.319984 354.704803,103.512100 354.263855,103.697189 
	C353.773682,102.699509 353.475616,101.644615 353.067383,99.962387 
	C352.924408,98.915543 352.891571,98.496025 352.858765,98.076515 
	C352.920227,97.262344 352.981720,96.448174 353.124023,95.233620 
	C353.815704,97.295349 354.426544,99.757462 355.017334,102.641602 
z"/>
<path fill="#746F67" opacity="1.000000" stroke="none" 
	d="
M181.824356,30.329865 
	C183.069794,29.998062 184.193619,30.006618 185.738678,30.029289 
	C185.085678,31.733280 184.011444,33.423157 182.675446,35.191814 
	C182.065140,34.694126 181.716614,34.117657 181.368073,33.541191 
	C181.479630,32.584198 181.591187,31.627213 181.824356,30.329865 
z"/>
<path fill="#312E27" opacity="1.000000" stroke="none" 
	d="
M165.992401,30.007706 
	C165.992401,30.007706 166.052155,29.643810 166.266693,29.367670 
	C166.481247,29.091530 166.938721,28.993181 166.938721,28.993181 
	C166.983231,30.616268 167.027756,32.239357 166.738724,33.934143 
	C166.301117,33.736824 166.198853,33.467106 166.098343,33.196697 
	C165.963638,32.895092 165.828934,32.593487 165.649384,31.762981 
	C165.733826,30.825289 165.863113,30.416496 165.992401,30.007706 
z"/>
<path fill="#19160F" opacity="1.000000" stroke="none" 
	d="
M15.471169,71.841690 
	C15.149487,70.309128 15.074264,68.567841 15.076335,66.396675 
	C15.341628,67.855522 15.529628,69.744247 15.471169,71.841690 
z"/>
<path fill="#312E27" opacity="1.000000" stroke="none" 
	d="
M166.640274,60.990196 
	C166.280365,59.359619 166.199448,57.537785 166.230774,55.271244 
	C166.535110,56.817341 166.727188,58.808144 166.640274,60.990196 
z"/>
<path fill="#746F67" opacity="1.000000" stroke="none" 
	d="
M370.493500,106.114899 
	C367.571045,106.257477 364.198700,106.342888 360.455811,106.317558 
	C363.404755,106.157120 366.724152,106.107430 370.493500,106.114899 
z"/>
<path fill="#39362E" opacity="1.000000" stroke="none" 
	d="
M80.704758,24.170624 
	C80.239487,23.596176 80.047127,22.897791 79.776390,21.845001 
	C80.784264,21.230209 81.870506,20.969820 84.264336,20.395983 
	C82.595482,22.249674 81.786575,23.148180 80.704758,24.170624 
z"/>
<path fill="#39362E" opacity="1.000000" stroke="none" 
	d="
M66.925903,21.099787 
	C67.072098,21.997705 67.071510,22.624624 67.090881,23.565012 
	C66.019371,22.968634 64.927917,22.058786 63.836460,21.148939 
	C64.015869,20.847345 64.195282,20.545753 64.374695,20.244162 
	C65.176170,20.439037 65.977646,20.633911 66.925903,21.099787 
z"/>
<path fill="#4C463E" opacity="1.000000" stroke="none" 
	d="
M165.454163,33.058464 
	C166.198853,33.467106 166.301117,33.736824 166.479950,34.138714 
	C166.554718,34.271580 166.444290,34.567879 165.933350,34.635471 
	C164.902069,34.802120 164.381699,34.901176 163.861343,35.000233 
	C163.861343,35.000233 163.482773,35.020893 163.294006,35.038185 
	C162.898849,34.824871 162.691147,34.595440 162.295868,34.228760 
	C162.094849,33.641521 162.080124,33.192707 162.160828,32.536613 
	C163.107483,32.526295 163.958725,32.723263 165.454163,33.058464 
z"/>
<path fill="#4C463E" opacity="1.000000" stroke="none" 
	d="
M181.104736,33.730385 
	C181.716614,34.117657 182.065140,34.694126 182.612793,35.542236 
	C182.062866,36.316761 181.313828,36.819637 180.564774,37.322517 
	C180.656982,36.188206 180.749191,35.053894 181.104736,33.730385 
z"/>
<path fill="#19160F" opacity="1.000000" stroke="none" 
	d="
M15.428852,53.869888 
	C15.156528,52.950581 15.108809,51.856216 15.142375,50.357533 
	C15.366926,51.200417 15.510192,52.447628 15.428852,53.869888 
z"/>
<path fill="#312E27" opacity="1.000000" stroke="none" 
	d="
M166.725662,81.611496 
	C166.307404,80.722099 165.999771,79.564781 165.978424,78.216537 
	C166.455231,79.131599 166.645767,80.237587 166.725662,81.611496 
z"/>
<path fill="#77756B" opacity="1.000000" stroke="none" 
	d="
M163.906982,35.594734 
	C164.381699,34.901176 164.902069,34.802120 165.820221,34.745926 
	C166.252930,35.902130 166.287827,37.015476 166.245956,39.148865 
	C166.157455,40.577976 166.145721,40.987045 166.133987,41.396118 
	C165.406860,39.660492 164.679749,37.924862 163.906982,35.594734 
z"/>
<path fill="#312E27" opacity="1.000000" stroke="none" 
	d="
M166.593719,67.015656 
	C166.265594,66.008347 166.197067,64.842590 166.238144,63.249023 
	C166.516281,64.166542 166.684799,65.511879 166.593719,67.015656 
z"/>
<path fill="#6C6961" opacity="1.000000" stroke="none" 
	d="
M14.912721,80.731140 
	C14.452463,80.994431 14.036399,80.996170 13.308287,80.999382 
	C12.958776,80.157745 12.921311,79.314644 13.010979,78.249023 
	C13.593986,78.547394 14.049862,79.068283 14.695594,79.766541 
	C14.909271,80.119133 14.933092,80.294365 14.912721,80.731140 
z"/>
<path fill="#5C5950" opacity="1.000000" stroke="none" 
	d="
M393.018982,96.703186 
	C392.652679,96.664520 392.350159,96.330803 391.951843,95.859039 
	C392.069000,95.031647 392.281952,94.342300 392.494934,93.652954 
	C392.690887,94.571350 392.886841,95.489738 393.018982,96.703186 
z"/>
<path fill="#312E27" opacity="1.000000" stroke="none" 
	d="
M166.639008,74.061844 
	C166.321991,73.343315 166.254196,72.491364 166.289276,71.221115 
	C166.557480,71.844688 166.722855,72.886566 166.639008,74.061844 
z"/>
<path fill="#444037" opacity="1.000000" stroke="none" 
	d="
M321.316803,60.169762 
	C321.128967,58.491505 321.203674,56.457283 321.400024,53.921478 
	C321.521667,53.419899 321.622559,53.524097 321.579834,53.581245 
	C321.551208,55.696861 321.565277,57.755325 321.316803,60.169762 
z"/>
<path fill="#312E27" opacity="1.000000" stroke="none" 
	d="
M166.168152,41.389206 
	C166.145721,40.987045 166.157455,40.577976 166.279724,39.564987 
	C166.548492,39.681828 166.706741,40.402580 166.673187,41.244339 
	C166.481384,41.365341 166.202301,41.382290 166.168152,41.389206 
z"/>
<path fill="#444037" opacity="1.000000" stroke="none" 
	d="
M321.934448,29.732315 
	C321.804962,28.989973 321.968658,28.044546 322.368530,26.964151 
	C322.479034,27.729200 322.353363,28.629215 321.934448,29.732315 
z"/>
<path fill="#4C463E" opacity="1.000000" stroke="none" 
	d="
M324.962128,22.385368 
	C324.547028,22.062227 324.337097,21.572458 324.000793,20.703255 
	C324.578339,20.433062 325.282227,20.542305 325.986084,20.651546 
	C325.713165,21.173944 325.440216,21.696342 324.962128,22.385368 
z"/>
<path fill="#19160F" opacity="1.000000" stroke="none" 
	d="
M15.964725,96.900070 
	C15.574079,96.310440 15.270720,95.466064 15.051623,94.276955 
	C15.441262,94.836586 15.746637,95.740952 15.964725,96.900070 
z"/>
<path fill="#39362E" opacity="1.000000" stroke="none" 
	d="
M338.014648,21.339790 
	C338.183655,21.790306 338.107208,22.166676 337.958008,22.822109 
	C337.364471,22.764193 336.843781,22.427212 336.323059,22.090229 
	C336.805115,21.815365 337.287140,21.540506 338.014648,21.339790 
z"/>
<path fill="#312E27" opacity="1.000000" stroke="none" 
	d="
M166.594574,52.084347 
	C166.316269,51.657749 166.255661,51.127281 166.284302,50.203804 
	C166.519791,50.534016 166.666031,51.257248 166.594574,52.084347 
z"/>
<path fill="#19160F" opacity="1.000000" stroke="none" 
	d="
M15.780178,36.008331 
	C15.735316,35.343418 16.048586,34.701073 16.624359,34.053406 
	C16.897558,34.491344 16.908255,34.934605 16.887444,35.708832 
	C16.616728,36.036839 16.377520,36.033875 15.780178,36.008331 
z"/>
<path fill="#39362E" opacity="1.000000" stroke="none" 
	d="
M217.766281,106.422264 
	C217.395920,106.873291 216.842255,107.161209 216.144409,107.203552 
	C216.527817,106.725037 217.055405,106.492096 217.766281,106.422264 
z"/>
<path fill="#4C463E" opacity="1.000000" stroke="none" 
	d="
M161.160980,29.240891 
	C161.688751,29.615906 162.121323,30.309380 162.487595,31.327772 
	C161.969467,30.954910 161.517624,30.257132 161.160980,29.240891 
z"/>
<path fill="#837C75" opacity="1.000000" stroke="none" 
	d="
M307.661499,104.002373 
	C307.723206,104.474266 307.446533,104.950279 307.090485,105.689995 
	C306.442932,105.833214 305.874725,105.712746 305.306549,105.592278 
	C305.978760,105.063690 306.650970,104.535095 307.661499,104.002373 
z"/>
<path fill="#5C5950" opacity="1.000000" stroke="none" 
	d="
M69.282028,25.282406 
	C69.800766,25.408989 70.329636,25.859495 70.972382,26.551975 
	C70.488235,26.398073 69.890198,26.002201 69.282028,25.282406 
z"/>
<path fill="#77756B" opacity="1.000000" stroke="none" 
	d="
M166.968964,28.760452 
	C166.938721,28.993181 166.481247,29.091530 166.266022,29.183285 
	C166.299133,28.817116 166.547455,28.359190 166.913376,27.980347 
	C167.030960,28.059427 166.999207,28.527725 166.968964,28.760452 
z"/>
<path fill="#837C75" opacity="1.000000" stroke="none" 
	d="
M300.707245,107.627068 
	C301.577820,107.351746 302.448364,107.076424 303.318939,106.801102 
	C303.412537,107.058365 303.506134,107.315636 303.599762,107.572906 
	C303.076691,107.827827 302.553619,108.082741 301.564819,108.240036 
	C300.968445,107.970627 300.837830,107.798843 300.707245,107.627068 
z"/>
<path fill="#837C75" opacity="1.000000" stroke="none" 
	d="
M299.400085,109.027969 
	C298.844116,108.806503 298.593384,108.566483 298.161499,108.139397 
	C298.659698,107.848938 299.339111,107.745544 300.362854,107.634613 
	C300.837830,107.798843 300.968445,107.970627 301.293396,108.401520 
	C300.893555,108.776894 300.299438,108.893158 299.400085,109.027969 
z"/>
<path fill="#312E27" opacity="1.000000" stroke="none" 
	d="
M166.535690,48.132397 
	C166.332214,47.960655 166.294708,47.728905 166.315063,47.149734 
	C166.482498,47.225670 166.592072,47.649029 166.535690,48.132397 
z"/>
<path fill="#2B2821" opacity="1.000000" stroke="none" 
	d="
M163.464951,74.892838 
	C163.661942,75.058113 163.698257,75.280815 163.677338,75.837196 
	C163.514832,75.764000 163.409561,75.357132 163.464951,74.892838 
z"/>
<path fill="#19160F" opacity="1.000000" stroke="none" 
	d="
M15.341270,45.985764 
	C15.183235,45.859962 15.143412,45.669792 15.159994,45.193687 
	C15.374364,45.125191 15.558669,45.329926 15.673542,45.568142 
	C15.706147,45.635761 15.536419,45.800953 15.341270,45.985764 
z"/>
<path fill="#444037" opacity="1.000000" stroke="none" 
	d="
M323.178345,25.895863 
	C323.022430,25.732059 323.089630,25.524635 323.285583,25.015686 
	C323.516022,24.984840 323.649414,25.249737 323.700409,25.529652 
	C323.716156,25.616169 323.507477,25.743563 323.178345,25.895863 
z"/>
<path fill="#4C463E" opacity="1.000000" stroke="none" 
	d="
M159.103638,25.229176 
	C159.298096,25.135805 159.526215,25.317656 159.870514,25.700470 
	C159.647568,25.914984 159.364441,25.782639 159.103638,25.229176 
z"/>
<path fill="#2B2821" opacity="1.000000" stroke="none" 
	d="
M238.210587,91.171837 
	C238.210587,91.171837 237.885391,91.431137 237.885391,91.431137 
	C237.885391,91.431137 237.776382,91.073257 237.923386,91.058533 
	C238.070389,91.043808 238.210587,91.171837 238.210587,91.171837 
z"/>
<path fill="#2B2821" opacity="1.000000" stroke="none" 
	d="
M238.000458,90.979614 
	C237.930527,90.915428 238.245529,91.047371 238.228058,91.109604 
	C238.210587,91.171837 238.070389,91.043808 238.000458,90.979614 
z"/>
<path fill="#746F67" opacity="1.000000" stroke="none" 
	d="
M264.068726,85.101242 
	C264.072540,84.712410 264.516907,84.892517 264.746399,84.961960 
	C264.840881,85.356628 264.705902,85.681862 264.326599,86.137337 
	C264.076508,86.008415 264.070709,85.749245 264.068726,85.101242 
z"/>
<path fill="#7D7871" opacity="1.000000" stroke="none" 
	d="
M340.200012,29.325054 
	C340.203156,29.043167 340.608521,29.037123 340.803589,29.019007 
	C340.998688,29.000891 340.983398,28.985626 340.983398,28.985626 
	C340.970551,29.230940 340.957733,29.476252 340.931763,30.091154 
	C340.678009,30.176142 340.437408,29.891541 340.200012,29.325054 
z"/>
<path fill="#68645C" opacity="1.000000" stroke="none" 
	d="
M7.763115,21.222673 
	C7.840977,21.403543 7.690310,21.573458 7.399058,21.844864 
	C7.140973,21.629364 7.233010,21.384485 7.763115,21.222673 
z"/>
<path fill="#19160F" opacity="1.000000" stroke="none" 
	d="
M75.326981,109.818710 
	C75.300179,109.805489 75.550133,109.816689 75.550133,109.816689 
	C75.550133,109.816689 75.428642,109.899712 75.362274,109.865677 
	C75.295906,109.831650 75.353775,109.831932 75.326981,109.818710 
z"/>
<path fill="#837C75" opacity="1.000000" stroke="none" 
	d="
M75.073486,85.006233 
	C74.829903,80.273033 74.856400,75.531845 74.912949,69.857994 
	C74.927872,58.662395 74.912758,48.399456 74.897636,38.136513 
	C74.913391,36.719627 74.929138,35.302738 74.916428,33.461601 
	C75.148888,32.805264 75.409805,32.573170 75.872063,32.173859 
	C76.038231,49.348557 76.003059,66.690475 75.925285,84.496902 
	C75.702972,84.973694 75.523262,84.985970 75.073486,85.006233 
z"/>
<path fill="#837C75" opacity="1.000000" stroke="none" 
	d="
M75.772888,87.278137 
	C75.902222,87.768997 75.910019,88.479179 75.861710,89.540863 
	C75.754189,89.094070 75.702766,88.295761 75.772888,87.278137 
z"/>
<path fill="#6C6961" opacity="1.000000" stroke="none" 
	d="
M352.798981,98.263916 
	C352.891571,98.496025 352.924408,98.915543 352.956116,99.650528 
	C352.883057,99.461113 352.811127,98.956223 352.798981,98.263916 
z"/>
<path fill="#7D7871" opacity="1.000000" stroke="none" 
	d="
M341.006042,29.008797 
	C341.013397,29.016705 341.027985,28.968437 341.005676,28.977032 
	C340.983398,28.985626 340.998688,29.000891 341.006042,29.008797 
z"/>
<path fill="#746F67" opacity="1.000000" stroke="none" 
	d="
M263.741455,74.434448 
	C263.928284,77.075531 263.972046,80.075188 263.992493,83.524879 
	C263.845581,80.914276 263.721985,77.853653 263.741455,74.434448 
z"/>
<path fill="#746F67" opacity="1.000000" stroke="none" 
	d="
M263.764435,60.416180 
	C263.923462,62.725014 263.939575,65.383728 263.921753,68.483963 
	C263.799042,66.205681 263.710266,63.485870 263.764435,60.416180 
z"/>
<path fill="#746F67" opacity="1.000000" stroke="none" 
	d="
M263.800232,34.321354 
	C263.945068,35.091484 263.967407,36.127377 263.946411,37.549866 
	C263.827972,36.820011 263.752838,35.703564 263.800232,34.321354 
z"/>
<path fill="#000000" opacity="1.000000" stroke="none" 
	d="
M257.087524,97.102066 
	C257.189087,97.059532 257.386414,97.130417 257.480713,97.320564 
	C257.377747,97.439819 257.183289,97.215492 257.087524,97.102066 
z"/>
<path fill="#312E27" opacity="1.000000" stroke="none" 
	d="
M74.704277,38.489548 
	C74.912758,48.399456 74.927872,58.662395 74.905426,69.381790 
	C74.748878,59.506359 74.629898,49.174473 74.704277,38.489548 
z"/>
<path fill="#77756B" opacity="1.000000" stroke="none" 
	d="
M165.814545,30.253178 
	C165.863113,30.416496 165.733826,30.825289 165.320374,31.392517 
	C165.236374,31.200184 165.436539,30.849419 165.814545,30.253178 
z"/>
<path fill="#39362E" opacity="1.000000" stroke="none" 
	d="
M251.314972,78.742477 
	C251.000443,64.926308 250.950455,50.799164 250.978363,36.672180 
	C250.982254,34.701710 251.369217,32.731995 251.777435,30.403290 
	C251.852112,46.173618 251.728180,62.302589 251.314972,78.742477 
z"/>
<path fill="#39362E" opacity="1.000000" stroke="none" 
	d="
M320.103760,38.528946 
	C320.433929,40.611710 320.698853,43.123440 320.958496,46.088634 
	C320.648346,44.014034 320.343445,41.485973 320.103760,38.528946 
z"/>
</svg>